<svg width="50" height="50" viewBox="0 0 50 50" fill="none" xmlns="http://www.w3.org/2000/svg">
<path d="M25 9.08333V42.8958C24.9945 43.9495 24.5735 44.9584 23.8285 45.7035C23.0834 46.4485 22.0745 46.8695 21.0208 46.875C19.9689 46.8642 18.963 46.4414 18.2191 45.6975C17.4752 44.9536 17.0525 43.9478 17.0417 42.8958C16.7091 42.9286 16.3742 42.9286 16.0417 42.8958C14.1979 42.8903 12.4312 42.1555 11.1275 40.8517C9.8237 39.548 9.08883 37.7813 9.08333 35.9375C9.08487 35.4467 9.14077 34.9576 9.25 34.4792C7.62354 33.9395 6.18653 32.9436 5.11016 31.6102C4.0338 30.2767 3.36347 28.662 3.17905 26.9583C2.99463 25.2546 3.30389 23.5338 4.06998 22.0009C4.83608 20.468 6.0267 19.1877 7.5 18.3125C7.23883 17.5838 7.10493 16.8157 7.10417 16.0417C7.10683 14.3714 7.71023 12.7578 8.80415 11.4955C9.89808 10.2333 11.4095 9.4067 13.0625 9.16666C13.1525 7.64462 13.8205 6.21444 14.93 5.1686C16.0394 4.12276 17.5065 3.54028 19.0312 3.54028C20.556 3.54028 22.0231 4.12276 23.1325 5.1686C24.242 6.21444 24.91 7.64462 25 9.16666V9.08333Z" stroke="#088395" stroke-width="1.5" stroke-miterlimit="10"/>
<path d="M14.0625 23.0208C12.2802 22.9233 10.6029 22.1466 9.37568 20.8504C8.14845 19.5542 7.4645 17.837 7.4645 16.052C7.4645 14.267 8.14845 12.5498 9.37568 11.2536C10.6029 9.95744 12.2802 9.18074 14.0625 9.08325" stroke="#088395" stroke-width="1.5" stroke-miterlimit="10"/>
<path d="M17.0417 28.9792C18.0868 28.9792 19.1216 29.1851 20.0872 29.585C21.0527 29.985 21.9301 30.5712 22.6691 31.3102C23.4081 32.0492 23.9943 32.9265 24.3942 33.8921C24.7942 34.8576 25 35.8925 25 36.9376" stroke="#088395" stroke-width="1.5" stroke-miterlimit="10"/>
<path d="M19.0417 15.0624C19.8259 15.0624 20.6024 14.9076 21.3266 14.6069C22.0509 14.3061 22.7087 13.8654 23.2622 13.3099C23.8158 12.7544 24.2542 12.0951 24.5524 11.3698C24.8506 10.6445 25.0027 9.86746 25 9.08325" stroke="#088395" stroke-width="1.5" stroke-miterlimit="10"/>
<path d="M25 9.08333V42.8958C25.0055 43.9495 25.4265 44.9584 26.1715 45.7035C26.9166 46.4485 27.9255 46.8695 28.9792 46.875C30.0311 46.8642 31.037 46.4414 31.7809 45.6975C32.5248 44.9536 32.9475 43.9478 32.9583 42.8958C33.2909 42.9286 33.6258 42.9286 33.9583 42.8958C35.8021 42.8903 37.5688 42.1555 38.8725 40.8517C40.1763 39.548 40.9112 37.7813 40.9167 35.9375C40.9151 35.4467 40.8592 34.9576 40.75 34.4792C42.3765 33.9395 43.8135 32.9436 44.8898 31.6102C45.9662 30.2767 46.6365 28.662 46.8209 26.9583C47.0054 25.2546 46.6961 23.5338 45.93 22.0009C45.1639 20.468 43.9733 19.1877 42.5 18.3125C42.7612 17.5838 42.8951 16.8157 42.8958 16.0417C42.8932 14.3714 42.2898 12.7578 41.1958 11.4955C40.1019 10.2333 38.5905 9.4067 36.9375 9.16666C36.8475 7.64462 36.1795 6.21444 35.07 5.1686C33.9606 4.12276 32.4935 3.54028 30.9687 3.54028C29.444 3.54028 27.9769 4.12276 26.8675 5.1686C25.758 6.21444 25.09 7.64462 25 9.16666V9.08333Z" stroke="#088395" stroke-width="1.5" stroke-miterlimit="10"/>
<path d="M35.9375 23.0208C37.7198 22.9233 39.3971 22.1466 40.6243 20.8504C41.8516 19.5542 42.5355 17.837 42.5355 16.052C42.5355 14.267 41.8516 12.5498 40.6243 11.2536C39.3971 9.95744 37.7198 9.18074 35.9375 9.08325" stroke="#088395" stroke-width="1.5" stroke-miterlimit="10"/>
<path d="M32.9583 28.9792C30.8477 28.9792 28.8234 29.8177 27.3309 31.3102C25.8385 32.8027 25 34.8269 25 36.9376" stroke="#088395" stroke-width="1.5" stroke-miterlimit="10"/>
<path d="M30.9583 15.0624C30.1741 15.0624 29.3976 14.9076 28.6734 14.6069C27.9491 14.3061 27.2913 13.8654 26.7378 13.3099C26.1842 12.7544 25.7458 12.0951 25.4476 11.3698C25.1494 10.6445 24.9973 9.86746 25 9.08325" stroke="#088395" stroke-width="1.5" stroke-miterlimit="10"/>
</svg>
