<svg width="30" height="30" viewBox="0 0 30 30" fill="none" xmlns="http://www.w3.org/2000/svg">
<path d="M2.8125 26.25H27.1875M4.6875 3.75V26.25M17.8125 3.75V26.25M25.3125 9.375V26.25M8.4375 8.4375H9.375M8.4375 12.1875H9.375M8.4375 15.9375H9.375M13.125 8.4375H14.0625M13.125 12.1875H14.0625M13.125 15.9375H14.0625M8.4375 26.25V22.0312C8.4375 21.255 9.0675 20.625 9.84375 20.625H12.6562C13.4325 20.625 14.0625 21.255 14.0625 22.0312V26.25M3.75 3.75H18.75M17.8125 9.375H26.25M21.5625 14.0625H21.5725V14.0725H21.5625V14.0625ZM21.5625 17.8125H21.5725V17.8225H21.5625V17.8125ZM21.5625 21.5625H21.5725V21.5725H21.5625V21.5625Z" stroke="#2E2E2E" stroke-width="1.5" stroke-linecap="round" stroke-linejoin="round"/>
</svg>
