<svg width="30" height="30" viewBox="0 0 30 30" fill="none" xmlns="http://www.w3.org/2000/svg">
<path d="M15.0001 18.575L12.6126 20.9625L10.2251 18.575V4.2625C10.2251 3.6293 10.4766 3.02203 10.9244 2.57428C11.3721 2.12654 11.9794 1.875 12.6126 1.875C13.2458 1.875 13.8531 2.12654 14.3008 2.57428C14.7486 3.02203 15.0001 3.6293 15.0001 4.2625V18.575Z" stroke="#2E2E2E" stroke-width="1.5" stroke-miterlimit="10"/>
<path d="M15 9.03751H23.35V20.9625H24.6C25.5132 21.0165 26.3713 21.4173 26.9988 22.083C27.6263 22.7487 27.9758 23.6289 27.9758 24.5438C27.9758 25.4586 27.6263 26.3388 26.9988 27.0045C26.3713 27.6702 25.5132 28.071 24.6 28.125H1.875V9.03751H10.225" stroke="#2E2E2E" stroke-width="1.5" stroke-miterlimit="10"/>
<path d="M28.125 5.45V24.55C28.1267 24.0795 28.0354 23.6133 27.8565 23.1781C27.6776 22.7429 27.4145 22.3473 27.0824 22.014C26.7503 21.6807 26.3556 21.4163 25.921 21.2358C25.4865 21.0554 25.0206 20.9625 24.55 20.9625H23.3V1.875H24.55C25.0195 1.875 25.4844 1.96747 25.9181 2.14713C26.3519 2.32679 26.746 2.59012 27.078 2.92209C27.4099 3.25406 27.6733 3.64817 27.8529 4.08191C28.0326 4.51565 28.125 4.98052 28.125 5.45Z" stroke="#2E2E2E" stroke-width="1.5" stroke-miterlimit="10"/>
<path d="M10.2251 6.64999H15.0001" stroke="#2E2E2E" stroke-width="1.5" stroke-miterlimit="10"/>
</svg>
