<svg width="18" height="23" viewBox="0 0 18 23" fill="none" xmlns="http://www.w3.org/2000/svg">
<path d="M2.86081 0.549149C2.22044 0.549149 1.60629 0.803534 1.15349 1.25634C0.700675 1.70915 0.446289 2.3233 0.446289 2.96367V19.597C0.446289 20.2374 0.700675 20.8515 1.15349 21.3043C1.60629 21.7571 2.22044 22.0115 2.86081 22.0115H15.2017C15.5188 22.0115 15.8327 21.9491 16.1257 21.8277C16.4186 21.7064 16.6848 21.5285 16.909 21.3043C17.1332 21.0801 17.3111 20.8139 17.4324 20.521C17.5537 20.2281 17.6162 19.9141 17.6162 19.597V2.96367C17.6162 2.64659 17.5537 2.33261 17.4324 2.03967C17.3111 1.74673 17.1332 1.48055 16.909 1.25634C16.6848 1.03214 16.4186 0.854284 16.1257 0.732943C15.8327 0.611602 15.5188 0.549149 15.2017 0.549149H2.86081ZM2.05597 2.96367C2.05597 2.75021 2.14076 2.5455 2.2917 2.39456C2.44264 2.24362 2.64735 2.15883 2.86081 2.15883H15.2017C15.4151 2.15883 15.6198 2.24362 15.7708 2.39456C15.9217 2.5455 16.0065 2.75021 16.0065 2.96367V19.597C16.0065 19.8105 15.9217 20.0152 15.7708 20.1661C15.6198 20.3171 15.4151 20.4018 15.2017 20.4018H2.86081C2.64735 20.4018 2.44264 20.3171 2.2917 20.1661C2.14076 20.0152 2.05597 19.8105 2.05597 19.597V2.96367ZM4.47049 5.37818C4.25703 5.37818 4.05231 5.46298 3.90138 5.61392C3.75044 5.76485 3.66565 5.96957 3.66565 6.18302C3.66565 6.39648 3.75044 6.60119 3.90138 6.75213C4.05231 6.90307 4.25703 6.98786 4.47049 6.98786H13.592C13.8055 6.98786 14.0102 6.90307 14.1611 6.75213C14.312 6.60119 14.3968 6.39648 14.3968 6.18302C14.3968 5.96957 14.312 5.76485 14.1611 5.61392C14.0102 5.46298 13.8055 5.37818 13.592 5.37818H4.47049ZM3.66565 15.8411C3.66565 15.6276 3.75044 15.4229 3.90138 15.272C4.05231 15.121 4.25703 15.0363 4.47049 15.0363H13.592C13.8055 15.0363 14.0102 15.121 14.1611 15.272C14.312 15.4229 14.3968 15.6276 14.3968 15.8411C14.3968 16.0545 14.312 16.2593 14.1611 16.4102C14.0102 16.5611 13.8055 16.6459 13.592 16.6459H4.47049C4.25703 16.6459 4.05231 16.5611 3.90138 16.4102C3.75044 16.2593 3.66565 16.0545 3.66565 15.8411ZM4.47049 10.2072C4.25703 10.2072 4.05231 10.292 3.90138 10.443C3.75044 10.5939 3.66565 10.7986 3.66565 11.0121C3.66565 11.2255 3.75044 11.4302 3.90138 11.5812C4.05231 11.7321 4.25703 11.8169 4.47049 11.8169H13.592C13.8055 11.8169 14.0102 11.7321 14.1611 11.5812C14.312 11.4302 14.3968 11.2255 14.3968 11.0121C14.3968 10.7986 14.312 10.5939 14.1611 10.443C14.0102 10.292 13.8055 10.2072 13.592 10.2072H4.47049Z" fill="#2A2A2A" fill-opacity="0.5"/>
</svg>
