<svg width="24" height="24" viewBox="0 0 24 24" fill="none" xmlns="http://www.w3.org/2000/svg">
<path fill-rule="evenodd" clip-rule="evenodd" d="M6.5 6.5H3V5.5H6.5V6.5ZM21 6.5H11.5V5.5H21V6.5Z" fill="#2E2E2E"/>
<path fill-rule="evenodd" clip-rule="evenodd" d="M9 4C7.89543 4 7 4.89543 7 6C7 7.10457 7.89543 8 9 8C10.1046 8 11 7.10457 11 6C11 4.89543 10.1046 4 9 4ZM6 6C6 4.34315 7.34315 3 9 3C10.6569 3 12 4.34315 12 6C12 7.65685 10.6569 9 9 9C7.34315 9 6 7.65685 6 6Z" fill="#2E2E2E"/>
<path fill-rule="evenodd" clip-rule="evenodd" d="M19 12.5H21V11.5H19V12.5ZM3 12.5H14V11.5H3V12.5Z" fill="#2E2E2E"/>
<path fill-rule="evenodd" clip-rule="evenodd" d="M16.5 10C17.6046 10 18.5 10.8954 18.5 12C18.5 13.1046 17.6046 14 16.5 14C15.3954 14 14.5 13.1046 14.5 12C14.5 10.8954 15.3954 10 16.5 10ZM19.5 12C19.5 10.3431 18.1569 9 16.5 9C14.8431 9 13.5 10.3431 13.5 12C13.5 13.6569 14.8431 15 16.5 15C18.1569 15 19.5 13.6569 19.5 12Z" fill="#2E2E2E"/>
<path fill-rule="evenodd" clip-rule="evenodd" d="M8 18.5H3V17.5H8V18.5ZM21 18.5H13V17.5H21V18.5Z" fill="#2E2E2E"/>
<path fill-rule="evenodd" clip-rule="evenodd" d="M10.5 16C9.39543 16 8.5 16.8954 8.5 18C8.5 19.1046 9.39543 20 10.5 20C11.6046 20 12.5 19.1046 12.5 18C12.5 16.8954 11.6046 16 10.5 16ZM7.5 18C7.5 16.3431 8.84315 15 10.5 15C12.1569 15 13.5 16.3431 13.5 18C13.5 19.6569 12.1569 21 10.5 21C8.84315 21 7.5 19.6569 7.5 18Z" fill="#2E2E2E"/>
</svg>
