<svg width="50" height="50" viewBox="0 0 50 50" fill="none" xmlns="http://www.w3.org/2000/svg">
<path d="M38.9167 7.1875H42.8958C43.9512 7.1875 44.9633 7.60673 45.7095 8.35297C46.4558 9.09921 46.875 10.1113 46.875 11.1667V35.0417C46.875 36.097 46.4558 37.1091 45.7095 37.8554C44.9633 38.6016 43.9512 39.0208 42.8958 39.0208H7.10417C6.04883 39.0208 5.03671 38.6016 4.29047 37.8554C3.54423 37.1091 3.125 36.097 3.125 35.0417V11.1667C3.125 10.1113 3.54423 9.09921 4.29047 8.35297C5.03671 7.60673 6.04883 7.1875 7.10417 7.1875H38.9167Z" stroke="#088395" stroke-width="1.5" stroke-miterlimit="10"/>
<path d="M25 46.9791V39.0208" stroke="#088395" stroke-width="1.5" stroke-miterlimit="10"/>
<path d="M34.9375 46.9792H15.0625" stroke="#088395" stroke-width="1.5" stroke-miterlimit="10"/>
<path d="M28.9792 15.1458L27.0833 19.1249H13.0625L9.08334 23.1041L13.0625 27.0833H27.0833L29.1667 31.0624H35.125C36.7072 31.0624 38.2249 30.4353 39.3456 29.3185C40.4663 28.2017 41.0987 26.6862 41.1042 25.1041V21.1249C41.1042 19.5391 40.4742 18.0183 39.3529 16.897C38.2316 15.7757 36.7108 15.1458 35.125 15.1458H28.9792Z" stroke="#088395" stroke-width="1.5" stroke-miterlimit="10"/>
<path d="M19.0417 23.1042V27.0834" stroke="#088395" stroke-width="1.5" stroke-miterlimit="10"/>
<path d="M34.9375 21.125V25.1042" stroke="#088395" stroke-width="1.5" stroke-miterlimit="10"/>
</svg>
