<svg width="24" height="24" viewBox="0 0 24 24" fill="none" xmlns="http://www.w3.org/2000/svg">
<g clip-path="url(#clip0_21_1381)">
<path d="M22.5 1.47998H0.5V22.52H22.5V1.47998Z" stroke="white" stroke-width="2" stroke-miterlimit="10"/>
<path d="M10.0698 18.6999V12.4799C10.0685 12.0404 10.1539 11.605 10.3212 11.1986C10.4885 10.7923 10.7343 10.4229 11.0446 10.1117C11.3548 9.80047 11.7235 9.55355 12.1294 9.38508C12.5352 9.2166 12.9704 9.12988 13.4098 9.12988C14.2983 9.12988 15.1504 9.48283 15.7786 10.1111C16.4069 10.7393 16.7598 11.5914 16.7598 12.4799V18.6999" stroke="white" stroke-width="2" stroke-miterlimit="10"/>
<path d="M6.23999 8.16992V18.6999" stroke="white" stroke-width="2" stroke-miterlimit="10"/>
<path d="M6.24003 7.22005C6.77022 7.22005 7.20003 6.79024 7.20003 6.26005C7.20003 5.72986 6.77022 5.30005 6.24003 5.30005C5.70984 5.30005 5.28003 5.72986 5.28003 6.26005C5.28003 6.79024 5.70984 7.22005 6.24003 7.22005Z" fill="white"/>
<path d="M10.0698 8.16992V12.9599" stroke="white" stroke-width="2" stroke-miterlimit="10"/>
</g>
<defs>
<clipPath id="clip0_21_1381">
<rect width="24" height="24" fill="white"/>
</clipPath>
</defs>
</svg>
