<svg width="395" height="42" viewBox="0 0 395 42" fill="none" xmlns="http://www.w3.org/2000/svg">
<path d="M184.366 33.5186C182.505 36.3317 182.213 36.3475 180.664 33.6985C176.14 25.9614 171.644 18.2081 167.126 10.4678C166.62 9.60154 166.041 8.77788 164.904 8.09178C164.904 18.9121 164.904 29.7325 164.904 40.7607C163.761 40.8284 162.951 40.8764 161.953 40.9355C161.953 27.3707 161.953 14.0052 161.953 0.680382C163.764 -0.116984 164.619 0.709042 165.453 2.17219C170.367 10.7956 175.364 19.3712 180.34 27.9595C180.954 29.0194 181.602 30.0593 182.467 31.4939C183.307 30.1238 183.965 29.0997 184.574 28.0473C189.548 19.4577 194.483 10.8454 199.521 2.29405C200.075 1.3552 201.205 0.756474 202.068 0C202.33 0.179749 202.592 0.359496 202.854 0.539245C202.854 13.8876 202.854 27.236 202.854 40.762C202.098 40.762 201.285 40.762 200.057 40.762C200.057 29.754 200.057 18.8286 200.057 7.90315C199.814 7.84292 199.571 7.7827 199.328 7.72247C194.374 16.2595 189.419 24.7966 184.366 33.5186Z" fill="#2E2E2E"/>
<path d="M263.81 17.8031C267.454 18.8373 270.895 19.7534 274.299 20.7937C280.422 22.6652 283.251 25.9207 283.071 30.7426C282.881 35.8084 279.457 39.6107 273.48 40.7068C267.134 41.8705 260.995 41.167 255.553 37.2684C254.264 36.3455 253.245 35.3374 255.271 33.8653C260.512 38.039 266.492 39.4498 273.08 38.0523C274.194 37.816 275.322 37.4207 276.312 36.865C281.342 34.0411 281.463 27.4299 276.351 24.7788C273.661 23.3838 270.547 22.8095 267.629 21.852C265.073 21.0133 262.377 20.4462 259.997 19.252C253.848 16.1664 253.084 7.59742 258.414 3.27846C263.454 -0.804881 275.236 -0.934281 280.291 3.15369C280.823 3.58356 280.776 4.72794 281.079 5.83801C277.664 4.7665 274.994 3.644 272.213 3.14656C269.993 2.74962 267.593 2.83807 265.352 3.19936C260.875 3.92099 258.273 6.50955 257.909 10.0814C257.548 13.6325 259.117 15.7485 263.81 17.8031Z" fill="#2E2E2E"/>
<path d="M68.1792 11.3525C66.456 6.10537 62.983 3.51091 57.2239 3.30658C52.5983 3.14247 47.9612 3.30106 43.3357 3.13593C42.4607 3.10469 41.616 2.22586 40.7573 1.73812C41.6303 1.28552 42.5045 0.441804 43.3762 0.444226C48.7672 0.459223 54.2033 0.275975 59.5366 0.904445C66.3047 1.70201 70.4925 5.81257 71.3329 11.4209C72.3425 18.1582 69.9696 22.7178 63.7008 26.1033C63.3663 26.284 63.0628 26.5221 62.3672 26.9846C65.5134 31.4787 68.6266 35.9256 71.7398 40.3725C71.5321 40.6713 71.3244 40.9701 71.1167 41.2689C69.9359 40.5707 68.4287 40.1306 67.6349 39.1265C65.1257 35.9528 62.9808 32.4911 60.4749 29.3146C59.7803 28.4342 58.3424 27.7425 57.2068 27.6811C53.5519 27.4837 49.8774 27.6855 46.2135 27.6024C44.3439 27.5599 43.6167 28.278 43.6585 30.138C43.7363 33.6006 43.6808 37.0663 43.6808 40.4835C41.69 41.267 40.6587 41.0143 40.6847 38.8462C40.731 34.9878 40.7644 31.1265 40.6654 27.27C40.618 25.4242 41.4817 24.9558 43.1077 24.9571C47.7377 24.9609 52.3741 25.0311 56.9965 24.8225C65.4287 24.4418 69.1557 19.9654 68.1792 11.3525Z" fill="#2E2E2E"/>
<path d="M364.675 0.421295C370.903 0.545216 376.908 0.309084 382.816 0.956227C389.486 1.68686 393.61 5.87176 394.465 11.5912C395.467 18.29 392.8 23.1401 386.391 26.2789C386.132 26.4057 385.88 26.5463 385.309 26.8466C388.527 31.4123 391.717 35.9373 395 40.5954C392.893 41.3818 391.666 40.7944 390.557 39.1152C388.329 35.7402 386.005 32.4158 383.502 29.2433C382.822 28.3816 381.377 27.7283 380.254 27.6819C375.926 27.5034 371.586 27.6095 366.901 27.6095C366.901 31.9993 366.901 36.2778 366.901 40.7548C365.765 40.819 364.966 40.8641 363.982 40.9196C363.982 35.6539 363.982 30.5813 363.982 24.9776C365.843 24.9776 367.716 24.9957 369.589 24.9738C373.347 24.9298 377.112 24.9937 380.861 24.779C387.563 24.3951 391.635 20.2177 391.596 13.9981C391.558 7.88313 387.33 3.6268 380.642 3.32759C375.638 3.10374 370.619 3.23463 365.607 3.19848C365.139 3.19511 364.671 3.12637 363.759 3.05154C364.007 2.06102 364.208 1.25611 364.675 0.421295Z" fill="#2E2E2E"/>
<path d="M235.429 14.7804C233.788 11.1871 232.244 7.78981 230.439 3.81928C228.429 8.19694 226.671 11.998 224.937 15.8098C221.469 23.4303 217.943 31.026 214.602 38.7016C213.743 40.6744 212.724 41.4569 210.483 40.6211C213.695 33.6247 216.9 26.6408 220.109 19.6588C222.802 13.8004 225.456 7.92344 228.248 2.11273C228.611 1.35765 229.653 0.589819 230.459 0.493701C231.11 0.416213 232.233 1.17962 232.545 1.84983C238.433 14.5005 244.233 27.1924 250.042 39.8802C250.153 40.1216 250.145 40.4169 250.191 40.6774C248.042 41.5246 247.093 40.5164 246.262 38.6373C242.758 30.7172 239.117 22.858 235.429 14.7804Z" fill="#2E2E2E"/>
<path d="M27.3054 17.3071C28.6891 8.56497 24.5009 3.46907 15.8397 3.2522C10.739 3.12449 5.63257 3.22887 0.302419 3.22887C0.302419 2.19653 0.302419 1.39586 0.302419 0.682736C6.40867 0.682736 12.4254 0.168563 18.3175 0.806269C26.6327 1.70624 31.1208 7.16108 30.8067 14.7098C30.5012 22.0508 25.2582 27.0401 17.0498 27.5415C13.3017 27.7705 9.52648 27.7158 5.77013 27.5913C3.67141 27.5218 2.78708 28.134 2.90655 30.3463C3.05715 33.1349 2.89906 35.9389 2.94359 38.7351C2.97549 40.7381 2.16496 41.3712 0.000234496 40.4983C0.000234496 35.9643 -0.000481169 31.352 0.000588001 26.7397C0.00102992 24.8519 1.35992 24.9673 2.63673 24.9497C7.55329 24.882 12.4824 25.0027 17.3826 24.6828C22.025 24.3798 25.7068 22.3357 27.3054 17.3071Z" fill="#2E2E2E"/>
<path d="M147.569 19.6252C151.197 10.5567 146.751 3.58715 137.253 3.25858C132.631 3.09868 127.999 3.18571 123.372 3.21426C121.629 3.22501 120.766 2.66375 121.671 0.0022583C128.399 0.426066 135.468 0.269658 142.297 1.47396C148.877 2.6344 152.067 7.8793 151.889 14.7169C151.727 20.9511 147.978 25.6272 141.621 26.94C138.731 27.5369 135.695 27.4923 132.721 27.6049C130.032 27.7067 127.336 27.6264 124.072 27.6264C124.072 31.4233 124.026 35.037 124.09 38.6488C124.124 40.5632 123.5 41.3889 121.348 40.5783C121.348 35.5631 121.348 30.4997 121.348 24.9525C124.979 24.9525 128.523 25.0374 132.061 24.9263C135.034 24.8328 138.16 25.0135 140.921 24.1381C143.315 23.3793 145.293 21.3087 147.569 19.6252Z" fill="#2E2E2E"/>
<path d="M294.344 0.37381C302.23 0.37381 309.827 0.37381 317.438 0.37381C318.209 2.31351 317.888 3.25871 315.749 3.22674C311.725 3.1666 307.699 3.20939 303.345 3.20939C303.345 15.8965 303.345 28.2766 303.345 40.7944C302.186 40.7944 301.361 40.7944 300.208 40.7944C300.208 28.2933 300.208 15.9142 300.208 3.20896C295.865 3.20896 291.846 3.15151 287.829 3.23266C285.752 3.27463 285.35 2.38842 286.007 0.37381C288.693 0.37381 291.374 0.37381 294.344 0.37381Z" fill="#2E2E2E"/>
<path d="M328.618 3.20861C327.393 3.20859 326.444 3.20859 325.255 3.20859C325.182 2.23999 325.123 1.45781 325.053 0.517029C333.81 0.517029 342.334 0.517029 350.958 0.517029C350.958 1.3745 350.958 2.19021 350.958 3.20864C343.482 3.20864 336.188 3.20864 328.618 3.20861Z" fill="#2E2E2E"/>
<path d="M85.9574 18.982C92.6951 18.9819 99.1594 18.9543 105.623 19.0093C106.717 19.0186 108.536 18.3857 108.331 20.4141C108.277 20.9526 106.503 21.6849 105.508 21.702C98.8532 21.8163 92.1948 21.8004 85.5386 21.7232C84.3944 21.71 82.4421 22.4904 82.562 20.308C82.5894 19.8104 84.5909 19.4213 85.9574 18.982Z" fill="#2E2E2E"/>
<path d="M336.042 21.7622C332.865 21.7612 329.976 21.6916 327.092 21.7836C325.193 21.8442 324.642 21.0951 325.283 19.171C333.741 19.171 342.263 19.171 350.944 19.171C350.944 19.9972 350.944 20.8047 350.944 21.7622C345.943 21.7622 341.138 21.7622 336.042 21.7622Z" fill="#2E2E2E"/>
<path d="M330.285 40.9473C328.474 40.9473 326.947 40.9473 325.3 40.9473C324.858 39.2075 324.738 38.0742 327.026 38.0936C334.906 38.1606 342.786 38.1194 350.881 38.1194C350.979 39.0188 351.066 39.8227 351.188 40.9473C344.156 40.9473 337.363 40.9473 330.285 40.9473Z" fill="#2E2E2E"/>
<path d="M106.865 0.38618C107.554 0.962322 107.999 1.5328 108.445 2.10328C107.878 2.46689 107.315 3.14182 106.745 3.14705C99.2221 3.21621 91.6975 3.23937 84.1762 3.10956C83.4795 3.09754 82.8023 1.96365 82.116 1.35067C82.3029 1.02729 82.4898 0.703909 82.6767 0.380524C90.6582 0.380524 98.6396 0.380524 106.865 0.38618Z" fill="#2E2E2E"/>
<path d="M91.6293 40.9471C88.9326 40.9426 86.5191 41.0265 84.121 40.8712C83.5227 40.8325 82.9743 40.0223 82.403 39.5666C82.9687 39.0895 83.5298 38.2033 84.1009 38.1968C92.0815 38.1059 100.064 38.1351 108.251 38.1351C108.251 39.1537 108.251 39.9474 108.251 40.9471C102.686 40.9471 97.3023 40.9471 91.6293 40.9471Z" fill="#2E2E2E"/>
</svg>
