<svg width="24" height="24" viewBox="0 0 24 24" fill="none" xmlns="http://www.w3.org/2000/svg">
<path d="M16.77 1.5H7.23001C6.17514 1.5 5.32001 2.35514 5.32001 3.41V20.59C5.32001 21.6449 6.17514 22.5 7.23001 22.5H16.77C17.8249 22.5 18.68 21.6449 18.68 20.59V3.41C18.68 2.35514 17.8249 1.5 16.77 1.5Z" stroke="#2E2E2E" stroke-width="2" stroke-miterlimit="10"/>
<path d="M13.91 2.4502H10.09C9.96049 2.45184 9.83205 2.4267 9.71272 2.37637C9.5934 2.32604 9.48576 2.25159 9.39656 2.1577C9.30736 2.0638 9.23853 1.95249 9.19438 1.83074C9.15022 1.709 9.13171 1.57944 9.13998 1.4502H14.86C14.8683 1.57944 14.8497 1.709 14.8056 1.83074C14.7614 1.95249 14.6926 2.0638 14.6034 2.1577C14.5142 2.25159 14.4066 2.32604 14.2872 2.37637C14.1679 2.4267 14.0395 2.45184 13.91 2.4502Z" stroke="#2E2E2E" stroke-width="2" stroke-miterlimit="10"/>
<path d="M11.05 19.6401H12.95" stroke="#2E2E2E" stroke-width="2" stroke-miterlimit="10"/>
</svg>
