<svg width="35" height="42" viewBox="0 0 35 42" fill="none" xmlns="http://www.w3.org/2000/svg">
<path d="M30.806 29.5075V19.4955C29.8433 19.6881 28.8806 19.8806 27.9179 19.8806H26.9552V31.4329H7.70149V17.9552C7.70149 12.5642 11.9373 8.32838 17.3284 8.32838C17.5209 5.8254 18.6761 3.70749 20.2164 1.97465C19.6388 1.2045 18.4836 0.626892 17.3284 0.626892C15.2104 0.626892 13.4776 2.35973 13.4776 4.47764V5.05525C7.70149 6.78809 3.85075 11.9866 3.85075 17.9552V29.5075L0 33.3582V35.2836H34.6567V33.3582L30.806 29.5075ZM13.4776 37.209C13.4776 39.3269 15.2104 41.0597 17.3284 41.0597C19.4463 41.0597 21.1791 39.3269 21.1791 37.209H13.4776ZM34.6567 9.29107C34.6567 12.9493 31.5761 16.0299 27.9179 16.0299C24.2597 16.0299 21.1791 12.9493 21.1791 9.29107C21.1791 5.63286 24.2597 2.55227 27.9179 2.55227C31.5761 2.55227 34.6567 5.63286 34.6567 9.29107Z" fill="#2E2E2E"/>
<circle cx="27.918" cy="9.29108" r="6.73881" fill="#088395"/>
</svg>
