<svg width="16" height="16" viewBox="0 0 16 16" fill="none" xmlns="http://www.w3.org/2000/svg">
<g clip-path="url(#clip0_116_220)">
<path d="M8.00004 9.90667L6.7267 11.18L5.45337 9.90667V2.27333C5.45337 1.93562 5.58752 1.61175 5.82632 1.37295C6.06512 1.13415 6.38899 1 6.7267 1C7.06441 1 7.38829 1.13415 7.62708 1.37295C7.86588 1.61175 8.00004 1.93562 8.00004 2.27333V9.90667Z" stroke="#088395" stroke-miterlimit="10"/>
<path d="M8 4.82H12.4533V11.18H13.12C13.6071 11.2088 14.0647 11.4226 14.3994 11.7776C14.734 12.1326 14.9204 12.6021 14.9204 13.09C14.9204 13.5779 14.734 14.0474 14.3994 14.4024C14.0647 14.7574 13.6071 14.9712 13.12 15H1V4.82H5.45333" stroke="#088395" stroke-miterlimit="10"/>
<path d="M15.0001 2.90667V13.0933C15.001 12.8424 14.9523 12.5937 14.8569 12.3616C14.7614 12.1295 14.6211 11.9186 14.444 11.7408C14.2669 11.563 14.0564 11.422 13.8246 11.3258C13.5929 11.2295 13.3444 11.18 13.0934 11.18H12.4268V1H13.0934C13.3438 1 13.5917 1.04932 13.8231 1.14514C14.0544 1.24096 14.2646 1.3814 14.4416 1.55845C14.6187 1.7355 14.7591 1.94569 14.855 2.17702C14.9508 2.40834 15.0001 2.65628 15.0001 2.90667Z" stroke="#088395" stroke-miterlimit="10"/>
<path d="M5.45337 3.54667H8.00004" stroke="#088395" stroke-miterlimit="10"/>
</g>
<defs>
<clipPath id="clip0_116_220">
<rect width="16" height="16" fill="white"/>
</clipPath>
</defs>
</svg>
