<svg width="21" height="20" viewBox="0 0 21 20" fill="none" xmlns="http://www.w3.org/2000/svg">
<path d="M16.3902 14.3911L20.7692 18.6069L19.3225 20L14.9446 15.7832C13.3156 17.0407 11.2894 17.7246 9.20169 17.7218C4.12236 17.7218 0 13.7521 0 8.86088C0 3.96968 4.12236 0 9.20169 0C14.281 0 18.4034 3.96968 18.4034 8.86088C18.4063 10.8713 17.6961 12.8224 16.3902 14.3911ZM14.3393 13.6605C15.6368 12.3756 16.3615 10.6532 16.3586 8.86088C16.3586 5.05366 13.1553 1.96909 9.20169 1.96909C5.24803 1.96909 2.04482 5.05366 2.04482 8.86088C2.04482 12.6681 5.24803 15.7527 9.20169 15.7527C11.0629 15.7555 12.8516 15.0577 14.1859 13.8082L14.3393 13.6605Z" fill="#2E2E2E" fill-opacity="0.25"/>
</svg>
