<svg width="30" height="30" viewBox="0 0 30 30" fill="none" xmlns="http://www.w3.org/2000/svg">
<path d="M17.886 30H12.114C11.7292 30 11.3958 29.875 11.1136 29.625C10.8314 29.375 10.6646 29.0625 10.6133 28.6875L10.1516 25.2C9.8181 25.075 9.50359 24.925 9.20807 24.75C8.91255 24.575 8.62421 24.3875 8.34305 24.1875L4.99534 25.5375C4.63619 25.6625 4.27705 25.675 3.91791 25.575C3.55877 25.475 3.27659 25.2625 3.07136 24.9375L0.223881 20.1C0.0186567 19.775 -0.0454757 19.425 0.0314832 19.05C0.108442 18.675 0.30084 18.375 0.608675 18.15L3.49464 16.0125C3.46898 15.8375 3.45616 15.6685 3.45616 15.5055V14.4945C3.45616 14.3315 3.46898 14.1625 3.49464 13.9875L0.608675 11.85C0.30084 11.625 0.108442 11.325 0.0314832 10.95C-0.0454757 10.575 0.0186567 10.225 0.223881 9.9L3.07136 5.0625C3.25093 4.7125 3.52645 4.4935 3.8979 4.4055C4.26936 4.3175 4.63517 4.3365 4.99534 4.4625L8.34305 5.8125C8.62523 5.6125 8.92024 5.425 9.22808 5.25C9.53591 5.075 9.84375 4.925 10.1516 4.8L10.6133 1.3125C10.6646 0.9375 10.8314 0.625 11.1136 0.375C11.3958 0.125 11.7292 0 12.114 0H17.886C18.2708 0 18.6042 0.125 18.8864 0.375C19.1686 0.625 19.3354 0.9375 19.3867 1.3125L19.8484 4.8C20.1819 4.925 20.4964 5.075 20.7919 5.25C21.0875 5.425 21.3758 5.6125 21.6569 5.8125L25.0047 4.4625C25.3638 4.3375 25.7229 4.325 26.0821 4.425C26.4412 4.525 26.7234 4.7375 26.9286 5.0625L29.7761 9.9C29.9813 10.225 30.0455 10.575 29.9685 10.95C29.8916 11.325 29.6992 11.625 29.3913 11.85L26.5054 13.9875C26.531 14.1625 26.5438 14.3315 26.5438 14.4945V15.5055C26.5438 15.6685 26.5182 15.8375 26.4669 16.0125L29.3528 18.15C29.6607 18.375 29.8531 18.675 29.93 19.05C30.007 19.425 29.9429 19.775 29.7376 20.1L26.8902 24.9C26.6849 25.225 26.3961 25.444 26.0236 25.557C25.6511 25.67 25.2858 25.6635 24.9277 25.5375L21.6569 24.1875C21.3748 24.3875 21.0798 24.575 20.7719 24.75C20.4641 24.925 20.1562 25.075 19.8484 25.2L19.3867 28.6875C19.3354 29.0625 19.1686 29.375 18.8864 29.625C18.6042 29.875 18.2708 30 17.886 30ZM15.077 20.25C16.5648 20.25 17.8347 19.7375 18.8864 18.7125C19.9382 17.6875 20.4641 16.45 20.4641 15C20.4641 13.55 19.9382 12.3125 18.8864 11.2875C17.8347 10.2625 16.5648 9.75 15.077 9.75C13.5634 9.75 12.2869 10.2625 11.2475 11.2875C10.208 12.3125 9.68881 13.55 9.68983 15C9.68983 16.45 10.209 17.6875 11.2475 18.7125C12.2859 19.7375 13.5624 20.25 15.077 20.25ZM15.077 17.25C14.4356 17.25 13.8903 17.031 13.4408 16.593C12.9914 16.155 12.7672 15.624 12.7682 15C12.7682 14.375 12.9929 13.8435 13.4424 13.4055C13.8918 12.9675 14.4367 12.749 15.077 12.75C15.7183 12.75 16.2637 12.969 16.7131 13.407C17.1625 13.845 17.3868 14.376 17.3857 15C17.3857 15.625 17.161 16.1565 16.7116 16.5945C16.2621 17.0325 15.7173 17.251 15.077 17.25ZM13.4608 27H16.5007L17.0394 23.025C17.8347 22.825 18.5724 22.531 19.2528 22.143C19.9331 21.755 20.5549 21.2865 21.1182 20.7375L24.9277 22.275L26.4284 19.725L23.1192 17.2875C23.2474 16.9375 23.3372 16.569 23.3885 16.182C23.4398 15.795 23.4655 15.401 23.4655 15C23.4655 14.6 23.4398 14.2065 23.3885 13.8195C23.3372 13.4325 23.2474 13.0635 23.1192 12.7125L26.4284 10.275L24.9277 7.725L21.1182 9.3C20.5539 8.725 19.932 8.244 19.2528 7.857C18.5735 7.47 17.8357 7.176 17.0394 6.975L16.5392 3H13.4993L12.9606 6.975C12.1653 7.175 11.4281 7.469 10.7488 7.857C10.0695 8.245 9.44715 8.7135 8.88176 9.2625L5.0723 7.725L3.57159 10.275L6.88083 12.675C6.75256 13.05 6.66278 13.425 6.61147 13.8C6.56017 14.175 6.53451 14.575 6.53451 15C6.53451 15.4 6.56017 15.7875 6.61147 16.1625C6.66278 16.5375 6.75256 16.9125 6.88083 17.2875L3.57159 19.725L5.0723 22.275L8.88176 20.7C9.44613 21.275 10.0685 21.7565 10.7488 22.1445C11.4291 22.5325 12.1664 22.826 12.9606 23.025L13.4608 27Z" fill="#2E2E2E"/>
</svg>
