<svg width="16" height="16" viewBox="0 0 16 16" fill="none" xmlns="http://www.w3.org/2000/svg">
<path d="M6.09326 1H9.90659" stroke="#088395" stroke-miterlimit="10"/>
<path d="M8.0001 15C11.1629 15 13.7268 12.4361 13.7268 9.27333C13.7268 6.11058 11.1629 3.54667 8.0001 3.54667C4.83735 3.54667 2.27344 6.11058 2.27344 9.27333C2.27344 12.4361 4.83735 15 8.0001 15Z" stroke="#088395" stroke-miterlimit="10"/>
<path d="M10.2468 7.02C10.8284 7.61895 11.1512 8.42264 11.1454 9.25755C11.1396 10.0925 10.8057 10.8916 10.2158 11.4824C9.62582 12.0732 8.82719 12.4083 7.99229 12.4154C7.1574 12.4224 6.35323 12.1008 5.75342 11.52" stroke="#088395" stroke-miterlimit="10"/>
<path d="M8 3.54667V1" stroke="#088395" stroke-miterlimit="10"/>
<path d="M8.00003 9.90667C8.34981 9.90667 8.63337 9.62311 8.63337 9.27333C8.63337 8.92355 8.34981 8.64 8.00003 8.64C7.65025 8.64 7.3667 8.92355 7.3667 9.27333C7.3667 9.62311 7.65025 9.90667 8.00003 9.90667Z" stroke="#088395" stroke-miterlimit="10"/>
<path d="M8 5.45333V8.63333" stroke="#088395" stroke-miterlimit="10"/>
<path d="M2.90674 3.54667L4.18007 4.82" stroke="#088395" stroke-miterlimit="10"/>
<path d="M13.0934 3.54667L11.8201 4.82" stroke="#088395" stroke-miterlimit="10"/>
</svg>
