<svg width="24" height="24" viewBox="0 0 24 24" fill="none" xmlns="http://www.w3.org/2000/svg">
<path d="M8.5 17C5.77 16.48 4.17 15.44 3.5 14" stroke="white" stroke-width="2" stroke-miterlimit="10"/>
<path d="M4.5 10.0001C3.35 8.08008 2.8 4.62008 3.5 4.00008C6.6 6.50008 9.62 8.09008 12.5 8.00008C12.5 8.00008 12.5 3.00008 16.5 3.00008C17.5896 2.94819 18.6594 3.30479 19.5 4.00008H22.5L21.5 7.00008C21.7037 9.01639 21.4498 11.0527 20.7572 12.9573C20.0647 14.8618 18.9513 16.5856 17.5 18.0001C12.5 23.0001 4.5 22.0001 1.5 18.0001" stroke="white" stroke-width="2" stroke-miterlimit="10"/>
<path d="M5.5 14C4.69424 13.4063 4.01421 12.6587 3.49927 11.8004C2.98432 10.9422 2.64468 9.99036 2.5 9" stroke="white" stroke-width="2" stroke-miterlimit="10"/>
</svg>
