<svg width="30" height="23" viewBox="0 0 30 23" fill="none" xmlns="http://www.w3.org/2000/svg">
<path d="M29.597 12.7975C29.492 12.8763 29.3725 12.9336 29.2453 12.9662C29.1181 12.9988 28.9857 13.006 28.8557 12.9874C28.7257 12.9688 28.6007 12.9248 28.4877 12.8579C28.3747 12.791 28.276 12.7025 28.1972 12.5975C27.5945 11.7874 26.8101 11.1302 25.907 10.6786C25.0039 10.2271 24.0075 9.99388 22.9978 9.9978C22.8012 9.99778 22.6089 9.93979 22.4451 9.83108C22.2812 9.72237 22.1531 9.56777 22.0766 9.38661C22.0247 9.2636 21.998 9.13143 21.998 8.99791C21.998 8.86439 22.0247 8.73222 22.0766 8.6092C22.1531 8.42804 22.2812 8.27344 22.4451 8.16474C22.6089 8.05603 22.8012 7.99804 22.9978 7.99802C23.5588 7.99797 24.1086 7.84059 24.5846 7.54375C25.0607 7.24691 25.444 6.82251 25.6909 6.31876C25.9379 5.81501 26.0386 5.2521 25.9817 4.69397C25.9248 4.13584 25.7125 3.60486 25.3689 3.16134C25.0253 2.71783 24.5642 2.37955 24.038 2.18495C23.5119 1.99034 22.9416 1.94719 22.3921 2.06042C21.8427 2.17364 21.3359 2.43869 20.9296 2.82547C20.5232 3.21224 20.2334 3.70523 20.0931 4.24844C20.0603 4.37565 20.0027 4.49514 19.9237 4.6001C19.8447 4.70506 19.7458 4.79343 19.6326 4.86016C19.5195 4.9269 19.3943 4.97069 19.2642 4.98904C19.1341 5.00739 19.0017 4.99994 18.8745 4.96711C18.7473 4.93428 18.6278 4.87672 18.5228 4.79772C18.4179 4.71871 18.3295 4.61981 18.2628 4.50665C18.196 4.39349 18.1523 4.26829 18.1339 4.13821C18.1156 4.00813 18.123 3.8757 18.1558 3.7485C18.3505 2.99523 18.7183 2.29778 19.2299 1.71167C19.7416 1.12555 20.383 0.666937 21.1031 0.372317C21.8231 0.0776971 22.602 -0.0447965 23.3778 0.0145825C24.1535 0.0739615 24.9047 0.313574 25.5716 0.714355C26.2384 1.11514 26.8025 1.66602 27.219 2.32318C27.6355 2.98034 27.8929 3.72564 27.9706 4.49976C28.0484 5.27389 27.9444 6.05548 27.667 6.78234C27.3895 7.50921 26.9462 8.16129 26.3724 8.68669C27.732 9.27537 28.9139 10.2095 29.8008 11.3964C29.8795 11.5017 29.9368 11.6215 29.9692 11.749C30.0016 11.8764 30.0085 12.0091 29.9896 12.1392C29.9707 12.2694 29.9263 12.3945 29.8589 12.5074C29.7915 12.6204 29.7026 12.719 29.597 12.7975ZM22.8628 20.4966C22.9351 20.6104 22.9837 20.7377 23.0056 20.8707C23.0275 21.0038 23.0222 21.1399 22.9902 21.2709C22.9581 21.4019 22.8998 21.525 22.8189 21.6329C22.738 21.7408 22.6361 21.8312 22.5194 21.8987C22.4026 21.9662 22.2734 22.0094 22.1395 22.0256C22.0057 22.0419 21.8699 22.0309 21.7404 21.9933C21.6109 21.9557 21.4903 21.8924 21.3859 21.807C21.2815 21.7216 21.1955 21.616 21.133 21.4965C20.5031 20.43 19.6061 19.5461 18.5303 18.932C17.4546 18.318 16.2373 17.9951 14.9987 17.9951C13.76 17.9951 12.5428 18.318 11.4671 18.932C10.3913 19.5461 9.49425 20.43 8.86438 21.4965C8.80187 21.616 8.71584 21.7216 8.61145 21.807C8.50707 21.8924 8.38649 21.9557 8.25698 21.9933C8.12747 22.0309 7.99169 22.0419 7.85782 22.0256C7.72395 22.0094 7.59476 21.9662 7.478 21.8987C7.36125 21.8312 7.25936 21.7408 7.17845 21.6329C7.09754 21.525 7.0393 21.4019 7.00722 21.2709C6.97513 21.1399 6.96987 21.0038 6.99176 20.8707C7.01365 20.7377 7.06223 20.6104 7.13457 20.4966C8.10396 18.831 9.58204 17.5203 11.3516 16.757C10.3559 15.9947 9.62408 14.9394 9.25908 13.7397C8.89409 12.5399 8.91424 11.2559 9.31672 10.0682C9.71919 8.88044 10.4837 7.8487 11.5029 7.11796C12.5221 6.38723 13.7446 5.99424 14.9987 5.99424C16.2528 5.99424 17.4753 6.38723 18.4945 7.11796C19.5136 7.8487 20.2782 8.88044 20.6807 10.0682C21.0831 11.2559 21.1033 12.5399 20.7383 13.7397C20.3733 14.9394 19.6415 15.9947 18.6458 16.757C20.4153 17.5203 21.8934 18.831 22.8628 20.4966ZM14.9987 15.9971C15.7897 15.9971 16.563 15.7626 17.2207 15.3231C17.8784 14.8836 18.3911 14.259 18.6938 13.5281C18.9965 12.7973 19.0757 11.9931 18.9214 11.2173C18.7671 10.4415 18.3861 9.72881 17.8268 9.16946C17.2674 8.61011 16.5548 8.22919 15.779 8.07487C15.0031 7.92055 14.1989 7.99975 13.4681 8.30247C12.7373 8.60518 12.1127 9.11782 11.6732 9.77554C11.2337 10.4333 10.9991 11.2065 10.9991 11.9976C10.9991 13.0583 11.4205 14.0756 12.1706 14.8257C12.9206 15.5757 13.9379 15.9971 14.9987 15.9971ZM7.99947 8.99791C7.99947 8.73272 7.89413 8.4784 7.70661 8.29088C7.5191 8.10337 7.26477 7.99802 6.99959 7.99802C6.43856 7.99797 5.88879 7.84059 5.41273 7.54375C4.93666 7.24691 4.55338 6.82251 4.30643 6.31876C4.05947 5.81501 3.95874 5.2521 4.01567 4.69397C4.0726 4.13584 4.28491 3.60486 4.62849 3.16134C4.97206 2.71783 5.43314 2.37955 5.95933 2.18495C6.48552 1.99034 7.05574 1.94719 7.60523 2.06042C8.15471 2.17364 8.66143 2.43869 9.06782 2.82547C9.47422 3.21224 9.764 3.70523 9.90426 4.24844C9.97056 4.50534 10.1362 4.72538 10.3647 4.86016C10.5933 4.99494 10.866 5.03341 11.1229 4.96711C11.3798 4.90082 11.5998 4.73518 11.7346 4.50665C11.8694 4.27811 11.9078 4.0054 11.8415 3.7485C11.6469 2.99523 11.2791 2.29778 10.7674 1.71167C10.2558 1.12555 9.6144 0.666937 8.89431 0.372317C8.17423 0.0776971 7.39533 -0.0447965 6.61958 0.0145825C5.84382 0.0739615 5.09264 0.313574 4.42578 0.714355C3.75893 1.11514 3.19482 1.66602 2.77834 2.32318C2.36185 2.98034 2.10449 3.72564 2.02673 4.49976C1.94897 5.27389 2.05296 6.05548 2.33042 6.78234C2.60788 7.50921 3.05115 8.16129 3.62497 8.68669C2.26672 9.27593 1.08615 10.2101 0.200353 11.3964C0.121486 11.5014 0.0640825 11.621 0.0314188 11.7482C-0.00124497 11.8754 -0.008529 12.0079 0.00998259 12.1379C0.0284942 12.268 0.0724389 12.3931 0.139308 12.5061C0.206176 12.6192 0.294659 12.718 0.399705 12.7969C0.504751 12.8757 0.624302 12.9331 0.751532 12.9658C0.878762 12.9985 1.01118 13.0057 1.14123 12.9872C1.27127 12.9687 1.3964 12.9248 1.50946 12.8579C1.62252 12.791 1.72131 12.7025 1.80017 12.5975C2.40284 11.7874 3.18728 11.1302 4.09036 10.6786C4.99344 10.2271 5.98992 9.99388 6.99959 9.9978C7.26477 9.9978 7.5191 9.89245 7.70661 9.70494C7.89413 9.51742 7.99947 9.26309 7.99947 8.99791Z" fill="#2E2E2E"/>
</svg>
