<svg width="24" height="24" viewBox="0 0 24 24" fill="none" xmlns="http://www.w3.org/2000/svg">
<path d="M12.5 1.50001C10.7743 1.50116 9.07822 1.94889 7.57678 2.79965C6.07533 3.65041 4.81961 4.87525 3.93173 6.35505C3.04386 7.83484 2.55404 9.51923 2.50993 11.2444C2.46582 12.9696 2.86891 14.6768 3.68 16.2L2.5 21.5L7.8 20.32C9.1411 21.0365 10.6279 21.4378 12.1474 21.4933C13.6669 21.5488 15.1791 21.2571 16.5689 20.6403C17.9587 20.0235 19.1896 19.0979 20.1678 17.9339C21.1461 16.7699 21.8461 15.3981 22.2145 13.9229C22.5829 12.4477 22.6101 10.9079 22.2939 9.42064C21.9777 7.93335 21.3266 6.53776 20.3899 5.33998C19.4533 4.1422 18.2558 3.17378 16.8886 2.50838C15.5214 1.84298 14.0205 1.49811 12.5 1.50001Z" stroke="white" stroke-width="2" stroke-miterlimit="10"/>
<path d="M14.8798 12.93L17.7398 15.79C17.7398 15.79 13.9298 19.6 9.16979 14.79C4.40979 9.97997 8.16979 6.21997 8.16979 6.21997L11.0298 9.07997L10.9798 9.17997C10.7151 9.7052 10.6238 10.3008 10.719 10.8812C10.8143 11.4616 11.0911 11.9969 11.5098 12.41C11.9229 12.8286 12.4581 13.1055 13.0385 13.2007C13.6189 13.296 14.2146 13.2047 14.7398 12.94L14.8798 12.93Z" stroke="white" stroke-width="2" stroke-miterlimit="10"/>
</svg>
