<svg width="395" height="42" viewBox="0 0 395 42" fill="none" xmlns="http://www.w3.org/2000/svg">
<path d="M184.366 33.5186C182.505 36.3317 182.213 36.3475 180.664 33.6985C176.14 25.9614 171.644 18.2081 167.126 10.4678C166.62 9.60154 166.041 8.77788 164.904 8.09178C164.904 18.9121 164.904 29.7325 164.904 40.7607C163.761 40.8284 162.951 40.8764 161.953 40.9354C161.953 27.3707 161.953 14.0052 161.953 0.680382C163.764 -0.116984 164.619 0.709042 165.453 2.17219C170.367 10.7956 175.364 19.3712 180.34 27.9595C180.954 29.0194 181.602 30.0593 182.467 31.4939C183.307 30.1238 183.965 29.0997 184.574 28.0473C189.548 19.4577 194.483 10.8454 199.521 2.29405C200.075 1.3552 201.205 0.756474 202.068 0C202.33 0.179749 202.592 0.359496 202.854 0.539245C202.854 13.8876 202.854 27.236 202.854 40.7619C202.098 40.7619 201.285 40.7619 200.057 40.7619C200.057 29.754 200.057 18.8286 200.057 7.90315C199.814 7.84292 199.571 7.7827 199.328 7.72247C194.374 16.2595 189.419 24.7966 184.366 33.5186Z" fill="white"/>
<path d="M263.81 17.8028C267.454 18.8371 270.895 19.7532 274.299 20.7934C280.422 22.6649 283.251 25.9205 283.071 30.7424C282.881 35.8082 279.457 39.6105 273.48 40.7066C267.134 41.8703 260.995 41.1668 255.553 37.2682C254.264 36.3453 253.245 35.3372 255.271 33.8651C260.512 38.0387 266.492 39.4496 273.08 38.0521C274.194 37.8158 275.322 37.4205 276.312 36.8648C281.342 34.0409 281.463 27.4297 276.351 24.7786C273.661 23.3836 270.547 22.8093 267.629 21.8518C265.073 21.0131 262.377 20.446 259.997 19.2517C253.848 16.1662 253.084 7.59721 258.414 3.27825C263.454 -0.805094 275.236 -0.934495 280.291 3.15348C280.823 3.58335 280.776 4.72772 281.079 5.8378C277.664 4.76629 274.994 3.64379 272.213 3.14635C269.993 2.7494 267.593 2.83786 265.352 3.19914C260.875 3.92078 258.273 6.50933 257.909 10.0812C257.548 13.6323 259.117 15.7483 263.81 17.8028Z" fill="white"/>
<path d="M68.1792 11.3527C66.456 6.10562 62.983 3.51115 57.2239 3.30682C52.5983 3.14272 47.9612 3.3013 43.3357 3.13617C42.4607 3.10494 41.616 2.22611 40.7573 1.73837C41.6303 1.28577 42.5045 0.442048 43.3762 0.44447C48.7672 0.459467 54.2033 0.276219 59.5366 0.904689C66.3047 1.70226 70.4925 5.81281 71.3329 11.4211C72.3425 18.1585 69.9696 22.7181 63.7008 26.1035C63.3663 26.2842 63.0628 26.5224 62.3672 26.9848C65.5134 31.4789 68.6266 35.9258 71.7398 40.3727C71.5321 40.6715 71.3244 40.9703 71.1167 41.2691C69.9359 40.5709 68.4287 40.1309 67.6349 39.1268C65.1257 35.9531 62.9808 32.4914 60.4749 29.3148C59.7803 28.4344 58.3424 27.7427 57.2068 27.6813C53.5519 27.4839 49.8774 27.6857 46.2135 27.6026C44.3439 27.5602 43.6167 28.2782 43.6585 30.1382C43.7363 33.6009 43.6808 37.0665 43.6808 40.4838C41.69 41.2673 40.6587 41.0146 40.6847 38.8465C40.731 34.988 40.7644 31.1268 40.6654 27.2703C40.618 25.4244 41.4817 24.9561 43.1077 24.9574C47.7377 24.9612 52.3741 25.0314 56.9965 24.8227C65.4287 24.4421 69.1557 19.9656 68.1792 11.3527Z" fill="white"/>
<path d="M364.675 0.421387C370.903 0.545308 376.908 0.309176 382.816 0.956319C389.486 1.68695 393.61 5.87185 394.465 11.5913C395.467 18.29 392.8 23.1402 386.391 26.279C386.132 26.4058 385.88 26.5464 385.309 26.8467C388.527 31.4124 391.717 35.9374 395 40.5955C392.893 41.3819 391.666 40.7945 390.557 39.1153C388.329 35.7402 386.005 32.4159 383.502 29.2434C382.822 28.3817 381.377 27.7284 380.254 27.682C375.926 27.5035 371.586 27.6096 366.901 27.6096C366.901 31.9994 366.901 36.2779 366.901 40.7549C365.765 40.8191 364.966 40.8642 363.982 40.9197C363.982 35.654 363.982 30.5814 363.982 24.9777C365.843 24.9777 367.716 24.9957 369.589 24.9739C373.347 24.9299 377.112 24.9938 380.861 24.7791C387.563 24.3952 391.635 20.2178 391.596 13.9982C391.558 7.88323 387.33 3.62689 380.642 3.32768C375.638 3.10383 370.619 3.23472 365.607 3.19857C365.139 3.1952 364.671 3.12646 363.759 3.05163C364.007 2.06111 364.208 1.2562 364.675 0.421387Z" fill="white"/>
<path d="M235.429 14.7805C233.788 11.1871 232.244 7.78984 230.439 3.81931C228.429 8.19697 226.671 11.9981 224.937 15.8098C221.469 23.4303 217.943 31.026 214.602 38.7017C213.743 40.6744 212.724 41.457 210.483 40.6211C213.695 33.6248 216.9 26.6408 220.109 19.6588C222.802 13.8004 225.456 7.92347 228.248 2.11276C228.611 1.35768 229.653 0.58985 230.459 0.493732C231.11 0.416244 232.233 1.17965 232.545 1.84986C238.433 14.5005 244.233 27.1924 250.042 39.8802C250.153 40.1216 250.145 40.417 250.191 40.6774C248.042 41.5247 247.093 40.5164 246.262 38.6374C242.758 30.7172 239.117 22.858 235.429 14.7805Z" fill="white"/>
<path d="M27.3054 17.3071C28.6891 8.56494 24.5009 3.46904 15.8397 3.25217C10.739 3.12446 5.63257 3.22884 0.302419 3.22884C0.302419 2.1965 0.302419 1.39583 0.302419 0.682706C6.40867 0.682706 12.4254 0.168533 18.3175 0.806238C26.6327 1.70621 31.1208 7.16105 30.8067 14.7098C30.5012 22.0507 25.2582 27.0401 17.0498 27.5415C13.3017 27.7705 9.52648 27.7158 5.77013 27.5913C3.67141 27.5217 2.78708 28.134 2.90655 30.3463C3.05715 33.1349 2.89906 35.9389 2.94359 38.7351C2.97549 40.7381 2.16496 41.3711 0.000234496 40.4983C0.000234496 35.9643 -0.000481169 31.352 0.000588001 26.7397C0.00102992 24.8518 1.35992 24.9673 2.63673 24.9497C7.55329 24.8819 12.4824 25.0027 17.3826 24.6828C22.025 24.3797 25.7068 22.3356 27.3054 17.3071Z" fill="white"/>
<path d="M147.569 19.6254C151.197 10.5569 146.751 3.58733 137.253 3.25877C132.631 3.09886 127.999 3.18589 123.372 3.21445C121.629 3.22519 120.766 2.66393 121.671 0.00244141C128.399 0.426249 135.468 0.269841 142.297 1.47414C148.877 2.63458 152.067 7.87948 151.889 14.7171C151.727 20.9512 147.978 25.6274 141.621 26.9402C138.731 27.5371 135.695 27.4924 132.721 27.6051C130.032 27.7068 127.336 27.6266 124.072 27.6266C124.072 31.4234 124.026 35.0372 124.09 38.649C124.124 40.5634 123.5 41.3891 121.348 40.5785C121.348 35.5633 121.348 30.4999 121.348 24.9526C124.979 24.9526 128.523 25.0376 132.061 24.9265C135.034 24.833 138.16 25.0137 140.921 24.1383C143.315 23.3794 145.293 21.3089 147.569 19.6254Z" fill="white"/>
<path d="M294.344 0.374023C302.23 0.374023 309.827 0.374023 317.438 0.374023C318.209 2.31372 317.888 3.25892 315.749 3.22696C311.725 3.16682 307.699 3.20961 303.345 3.20961C303.345 15.8967 303.345 28.2768 303.345 40.7946C302.186 40.7946 301.361 40.7946 300.208 40.7946C300.208 28.2935 300.208 15.9144 300.208 3.20918C295.865 3.20918 291.846 3.15172 287.829 3.23288C285.752 3.27484 285.35 2.38863 286.007 0.374023C288.693 0.374023 291.374 0.374023 294.344 0.374023Z" fill="white"/>
<path d="M328.618 3.20867C327.393 3.20865 326.444 3.20865 325.255 3.20865C325.182 2.24005 325.123 1.45787 325.053 0.51709C333.81 0.51709 342.334 0.51709 350.958 0.51709C350.958 1.37456 350.958 2.19027 350.958 3.2087C343.482 3.2087 336.188 3.2087 328.618 3.20867Z" fill="white"/>
<path d="M85.9574 18.9819C92.6951 18.9818 99.1594 18.9542 105.623 19.0092C106.717 19.0185 108.536 18.3855 108.331 20.414C108.277 20.9525 106.503 21.6848 105.508 21.7019C98.8532 21.8162 92.1948 21.8003 85.5386 21.7231C84.3944 21.7098 82.4421 22.4902 82.562 20.3079C82.5894 19.8103 84.5909 19.4212 85.9574 18.9819Z" fill="white"/>
<path d="M336.042 21.7621C332.865 21.7611 329.976 21.6915 327.092 21.7835C325.193 21.8441 324.642 21.095 325.283 19.1709C333.741 19.1709 342.263 19.1709 350.944 19.1709C350.944 19.9971 350.944 20.8046 350.944 21.7621C345.943 21.7621 341.138 21.7621 336.042 21.7621Z" fill="white"/>
<path d="M330.285 40.9472C328.474 40.9472 326.947 40.9472 325.3 40.9472C324.858 39.2073 324.738 38.0741 327.026 38.0935C334.906 38.1604 342.786 38.1192 350.881 38.1192C350.979 39.0186 351.066 39.8226 351.188 40.9472C344.156 40.9472 337.363 40.9472 330.285 40.9472Z" fill="white"/>
<path d="M106.865 0.386027C107.554 0.962169 107.999 1.53265 108.445 2.10312C107.878 2.46674 107.315 3.14167 106.745 3.1469C99.2221 3.21605 91.6975 3.23922 84.1762 3.10941C83.4795 3.09739 82.8023 1.9635 82.116 1.35052C82.3029 1.02713 82.4898 0.703757 82.6767 0.380371C90.6582 0.380371 98.6396 0.380371 106.865 0.386027Z" fill="white"/>
<path d="M91.6293 40.9473C88.9326 40.9428 86.5191 41.0267 84.121 40.8714C83.5227 40.8327 82.9743 40.0225 82.403 39.5669C82.9687 39.0897 83.5298 38.2035 84.1009 38.197C92.0815 38.1061 100.064 38.1353 108.251 38.1353C108.251 39.1539 108.251 39.9476 108.251 40.9473C102.686 40.9473 97.3023 40.9473 91.6293 40.9473Z" fill="white"/>
</svg>
